Coordinates
version=1
nRows=6
nColumns=107
inDegrees=yes

Units are S.I. units (second, meters, Newtons, ...)
If the header above contains a line with 'inDegrees', this indicates whether rotational values are in degrees (yes) or radians (no).

endheader
time	sternoclavicular_r2	sternoclavicular_r3	unrotscap_r3	unrotscap_r2	acromioclavicular_r2	acromioclavicular_r3	acromioclavicular_r1	unrothum_r1	unrothum_r3	unrothum_r2	elv_angle	shoulder_elv	shoulder1_r2	shoulder_rot	elbow_flexion	pro_sup	deviation	flexion	proximal_distal_r1	proximal_distal_r3	cmc_flexion	cmc_abduction	mp_flexion	ip_flexion	mcp2_flexion	mcp2_abduction	pm2_flexion	md2_flexion	mcp3_flexion	mcp3_abduction	pm3_flexion	md3_flexion	mcp4_flexion	mcp4_abduction	pm4_flexion	md4_flexion	mcp5_flexion	mcp5_abduction	pm5_flexion	md5_flexion	bicpt_tx	bicpt_ty	bicpt_tz	bicpt2_tx	bicpt2_ty	bicpt2_tz	ptpt_tx	ptpt_ty	ptpt_tz	FCUpt_tx	FCUpt_ty	FCUpt_tz	EDCpt_tx	EDCpt_ty	EDCpt_tz	APLpt_tx	APLpt_ty	APLpt_tz	FPLpt_tx	FPLpt_ty	FPLpt_tz	FPLpt2_tx	FPLpt2_ty	FPLpt2_tz	PEC1pt2_tx	PEC1pt2_ty	PEC1pt2_tz	PEC1pt3_tx	PEC1pt3_ty	PEC1pt3_tz	PEC2pt2_tx	PEC2pt2_ty	PEC2pt2_tz	PEC2pt3_tx	PEC2pt3_ty	PEC2pt3_tz	PEC3pt2_tx	PEC3pt2_ty	PEC3pt2_tz	PEC3pt3_tx	PEC3pt3_ty	PEC3pt3_tz	DELT2pt2a_tx	DELT2pt2a_ty	DELT2pt2a_tz	DELT2pt2_tx	DELT2pt2_ty	DELT2pt2_tz	LAT1pt2_tx	LAT1pt2_ty	LAT1pt2_tz	LAT1pt3_tx	LAT1pt3_ty	LAT1pt3_tz	LAT2pt2_tx	LAT2pt2_ty	LAT2pt2_tz	LAT2pt3_tx	LAT2pt3_ty	LAT2pt3_tz	LAT3pt2_tx	LAT3pt2_ty	LAT3pt2_tz	LAT3pt3_tx	LAT3pt3_ty	LAT3pt3_tz
      2.00000000	     -0.32558720	      0.13790337	     -0.13790337	      0.32558720	     -0.06592478	      0.53278092	      0.23948136	     -0.23948136	     -0.53278092	      0.06592478	     99.26119049	     77.08566356	     -1.73243459	    -19.77361801	     27.23169481	     17.51875437	     -0.08748207	     -0.48259407	     -0.12498954	     -0.24129704	     36.12599921	    -21.52606813	     11.65974466	     -0.60686168	    -14.32592172	      4.82211452	     14.07559562	    -35.24322837	    -20.38957864	      0.91498392	      7.00333955	     11.21043674	    -19.00509244	      3.00517384	    -15.12616240	     21.35786908	    -29.12088142	      3.10023038	     -2.41092964	      4.97527201	      0.00080074	     -0.03072117	     -0.00480274	      0.01595441	     -0.01759762	     -0.00951570	      0.00625556	     -0.06573701	     -0.00146123	      0.00559483	     -0.18389099	     -0.00003656	     -0.00210225	      0.00054371	      0.00017088	      0.00029873	      0.00011949	      0.00059747	      0.00038238	      0.00114714	      0.00064526	     -0.00001285	     -0.00017811	     -0.00021374	      0.00252670	      0.00886486	      0.00616686	     -0.00826530	      0.01995664	     -0.01892883	      0.00252670	      0.00886486	      0.00616686	      0.00055673	      0.01850057	     -0.00972137	      0.00398256	      0.00492964	      0.01605166	      0.00000000	      0.00794823	      0.00000000	     -0.00723749	     -0.03344664	     -0.00655461	      0.01364528	     -0.00042499	     -0.00322000	     -0.00089933	      0.01507454	     -0.00616686	      0.00248387	      0.02175531	     -0.01798667	     -0.00603838	      0.01306175	     -0.00552448	     -0.01259067	      0.02757956	     -0.03087712	     -0.02363962	      0.01460346	     -0.00740880	     -0.01567410	      0.03186210	     -0.03858569
      2.03333333	     -0.32526920	      0.13776868	     -0.13776868	      0.32526920	     -0.06586040	      0.53226055	      0.23924746	     -0.23924746	     -0.53226055	      0.06586040	     99.32212017	     77.01037361	     -1.73349802	    -19.92256715	     27.19386827	     17.23304083	     -0.08829993	     -0.48027167	     -0.12621716	     -0.24013583	     36.28315341	    -21.51610223	     11.73665404	     -0.56732104	    -14.40471942	      4.80871313	     14.04197452	    -35.24567092	    -20.29473225	      0.89684587	      7.05934535	     11.20864134	    -18.92331579	      2.96010520	    -15.08326060	     21.35119458	    -29.09036319	      3.05101521	     -2.40154348	      4.97276134	      0.00079949	     -0.03071683	     -0.00480204	      0.01593897	     -0.01758735	     -0.00953706	      0.00627667	     -0.06572335	     -0.00143821	      0.00556808	     -0.18389508	     -0.00002963	     -0.00206796	      0.00053410	      0.00016940	      0.00029822	      0.00011929	      0.00059644	      0.00038172	      0.00114516	      0.00064415	     -0.00001283	     -0.00017571	     -0.00021085	      0.00252423	      0.00885620	      0.00616084	     -0.00825723	      0.01993715	     -0.01891034	      0.00252423	      0.00885620	      0.00616084	      0.00055619	      0.01848251	     -0.00971187	      0.00397974	      0.00492482	      0.01604484	      0.00000000	      0.00793261	      0.00000000	     -0.00723042	     -0.03341397	     -0.00654164	      0.01373153	     -0.00042956	     -0.00327135	     -0.00089846	      0.01505982	     -0.00616084	      0.00248145	      0.02173406	     -0.01796910	     -0.00603248	      0.01304899	     -0.00551908	     -0.01257837	      0.02755262	     -0.03084696	     -0.02361653	      0.01458920	     -0.00740156	     -0.01565879	      0.03183098	     -0.03854800
      2.06666667	     -0.32679267	      0.13841395	     -0.13841395	      0.32679267	     -0.06616887	      0.53475352	      0.24036802	     -0.24036802	     -0.53475352	      0.06616887	     99.03957330	     77.37106908	     -1.72856664	    -18.53946864	     27.13707045	     14.97534679	     -0.09616383	     -0.45955267	     -0.13807693	     -0.22977633	     34.34826451	    -20.41220438	     13.58834293	     -1.83821062	    -15.89152441	      4.72968000	     16.96623728	    -38.37100659	    -22.03697116	      1.00527251	      9.24575178	     14.63556507	    -19.68285779	      2.81283945	    -16.11796231	     24.37455582	    -30.50529060	      3.02578450	     -2.02987243	      4.96319798	      0.00079761	     -0.03071032	     -0.00480099	      0.01581132	     -0.01757192	     -0.00970243	      0.00644349	     -0.06561549	     -0.00125634	      0.00535743	     -0.18392673	      0.00002703	     -0.00179704	      0.00045891	      0.00015637	      0.00029335	      0.00011734	      0.00058671	      0.00037549	      0.00112648	      0.00063365	     -0.00001250	     -0.00020326	     -0.00024391	      0.00253605	      0.00889768	      0.00618969	     -0.00829590	      0.02003053	     -0.01899891	      0.00253605	      0.00889768	      0.00618969	      0.00055879	      0.01856907	     -0.00975736	      0.00399325	      0.00494789	      0.01607735	      0.00000000	      0.00800763	      0.00000000	     -0.00726429	     -0.03357048	     -0.00660391	      0.01291919	     -0.00038751	     -0.00280821	     -0.00090266	      0.01513036	     -0.00618969	      0.00249307	      0.02183585	     -0.01805326	     -0.00606074	      0.01311011	     -0.00554493	     -0.01263729	      0.02768167	     -0.03099144	     -0.02372715	      0.01465753	     -0.00743623	     -0.01573213	      0.03198007	     -0.03872855
      2.10000000	     -0.32832229	      0.13906183	     -0.13906183	      0.32832229	     -0.06647858	      0.53725654	      0.24149312	     -0.24149312	     -0.53725654	      0.06647858	     98.70169604	     77.73322017	     -1.72266957	    -16.41014029	     27.13454197	     13.93151968	     -0.07602825	     -0.46450109	     -0.10791166	     -0.23225055	     36.27527681	    -21.52844711	     11.07806862	      0.66097279	    -14.25730617	      4.80778468	     14.01127312	    -35.57744052	    -19.22497512	      0.95690575	      7.51451746	     10.55053518	    -18.10540355	      2.97610916	    -13.61242082	     19.79512212	    -28.46118503	      2.94651687	     -1.64043425	      4.93887422	      0.00079753	     -0.03071003	     -0.00480094	      0.01574840	     -0.01757123	     -0.00977649	      0.00652062	     -0.06556562	     -0.00117226	      0.00526056	     -0.18394087	      0.00005451	     -0.00167178	      0.00042467	      0.00014942	      0.00029456	      0.00011782	      0.00058912	      0.00037704	      0.00113111	      0.00063625	     -0.00001283	     -0.00017583	     -0.00021099	      0.00254792	      0.00893933	      0.00621866	     -0.00833474	      0.02012428	     -0.01908784	      0.00254792	      0.00893933	      0.00621866	      0.00056141	      0.01865599	     -0.00980303	      0.00400678	      0.00497105	      0.01610967	      0.00000000	      0.00808333	      0.00000000	     -0.00729829	     -0.03372761	     -0.00666672	      0.01161859	     -0.00032433	     -0.00215652	     -0.00090689	      0.01520118	     -0.00621866	      0.00250474	      0.02193806	     -0.01813777	     -0.00608911	      0.01317147	     -0.00557089	     -0.01269644	      0.02781124	     -0.03113650	     -0.02383821	      0.01472614	     -0.00747103	     -0.01580577	      0.03212976	     -0.03890983
      2.13333333	     -0.32861350	      0.13918517	     -0.13918517	      0.32861350	     -0.06653755	      0.53773306	      0.24170731	     -0.24170731	     -0.53773306	      0.06653755	     98.63651244	     77.80216608	     -1.72153190	    -16.23701385	     27.19370004	     13.81862482	     -0.07771973	     -0.45941416	     -0.11042061	     -0.22970708	     35.74279024	    -21.69742880	     10.83412899	      0.71197369	    -13.64913290	      4.68414875	     14.38479090	    -35.31653470	    -18.41295695	      0.85387258	      7.97925501	     10.77387805	    -17.33831940	      2.94846043	    -13.00651560	     19.90917299	    -27.77500473	      2.77659714	     -1.29412851	      4.97369377	      0.00079948	     -0.03071681	     -0.00480204	      0.01574141	     -0.01758730	     -0.00978439	      0.00652896	     -0.06556022	     -0.00116316	      0.00525011	     -0.18394238	      0.00005754	     -0.00165823	      0.00042099	      0.00014862	      0.00029329	      0.00011732	      0.00058658	      0.00037541	      0.00112624	      0.00063351	     -0.00001284	     -0.00018382	     -0.00022059	      0.00255018	      0.00894726	      0.00622418	     -0.00834213	      0.02014213	     -0.01910477	      0.00255018	      0.00894726	      0.00622418	      0.00056191	      0.01867254	     -0.00981173	      0.00400935	      0.00497546	      0.01611579	      0.00000000	      0.00809778	      0.00000000	     -0.00730477	     -0.03375752	     -0.00667872	      0.01151011	     -0.00031928	     -0.00210698	     -0.00090769	      0.01521466	     -0.00622418	      0.00250696	      0.02195752	     -0.01815385	     -0.00609451	      0.01318316	     -0.00557583	     -0.01270770	      0.02783591	     -0.03116412	     -0.02385935	      0.01473920	     -0.00747766	     -0.01581979	      0.03215826	     -0.03894434
      2.16666667	     -0.32825720	      0.13903426	     -0.13903426	      0.32825720	     -0.06646541	      0.53715003	      0.24144524	     -0.24144524	     -0.53715003	      0.06646541	     98.75546147	     77.71781052	     -1.72360796	    -16.79275071	     27.07611732	     13.75004224	     -0.09062078	     -0.47135752	     -0.12970683	     -0.23567876	     34.57595027	    -21.59207571	     11.22348918	      0.14192333	    -12.86327066	      4.97339367	     15.60752582	    -35.47091961	    -18.26000820	      1.15770962	      9.88484727	     12.84382618	    -16.75884824	      3.27606089	    -12.71631589	     21.11002421	    -27.48711004	      2.96140727	     -0.97127627	      4.99710252	      0.00079559	     -0.03070334	     -0.00479987	      0.01573717	     -0.01755536	     -0.00978919	      0.00653403	     -0.06555694	     -0.00115764	      0.00524376	     -0.18394330	      0.00005938	     -0.00165000	      0.00041876	      0.00014814	      0.00029620	      0.00011848	      0.00059240	      0.00037914	      0.00113741	      0.00063979	     -0.00001259	     -0.00020023	     -0.00024028	      0.00254742	      0.00893756	      0.00621743	     -0.00833308	      0.02012029	     -0.01908406	      0.00254742	      0.00893756	      0.00621743	      0.00056130	      0.01865229	     -0.00980109	      0.00400621	      0.00497006	      0.01610830	      0.00000000	      0.00808010	      0.00000000	     -0.00729685	     -0.03372092	     -0.00666405	      0.01185672	     -0.00033554	     -0.00226805	     -0.00090671	      0.01519816	     -0.00621743	      0.00250424	      0.02193371	     -0.01813417	     -0.00608790	      0.01316886	     -0.00556978	     -0.01269392	      0.02780573	     -0.03113033	     -0.02383348	      0.01472322	     -0.00746955	     -0.01580263	      0.03212339	     -0.03890211
